<svg width="24" height="25" viewBox="0 0 24 25" fill="none" xmlns="http://www.w3.org/2000/svg">
<path d="M16.8452 4.93761e-07H7.15477C5.25786 0.00214167 3.43927 0.757983 2.09795 2.10169C0.756632 3.44541 0.00213736 5.26725 0 7.16755V16.8753C0.00213736 18.7756 0.756632 20.5974 2.09795 21.9411C3.43927 23.2848 5.25786 24.0407 7.15477 24.0428H16.8452C18.7421 24.0407 20.5608 23.2848 21.9021 21.9411C23.2434 20.5974 23.9978 18.7756 24 16.8753V7.16755C23.9978 5.26725 23.2434 3.44541 21.9021 2.10169C20.5608 0.757983 18.7421 0.00214167 16.8452 4.93761e-07V4.93761e-07ZM21.5854 16.8915C21.5854 18.1509 21.0861 19.3587 20.1971 20.2493C19.3081 21.1399 18.1024 21.6402 16.8452 21.6402H7.15477C5.89758 21.6402 4.69189 21.1399 3.80293 20.2493C2.91396 19.3587 2.41453 18.1509 2.41453 16.8915V7.18373C2.41453 5.9243 2.91396 4.71644 3.80293 3.82588C4.69189 2.93533 5.89758 2.43502 7.15477 2.43502H16.8452C18.1024 2.43502 19.3081 2.93533 20.1971 3.82588C21.0861 4.71644 21.5854 5.9243 21.5854 7.18373V16.8915Z" fill="white"/>
<path d="M11.9919 5.80041C10.7637 5.80041 9.56305 6.16528 8.54182 6.84885C7.5206 7.53243 6.72467 8.50402 6.25466 9.64076C5.78464 10.7775 5.66165 12.0284 5.90126 13.2351C6.14087 14.4419 6.73234 15.5504 7.60081 16.4204C8.46929 17.2904 9.57578 17.8829 10.7804 18.123C11.985 18.363 13.2336 18.2398 14.3684 17.7689C15.5031 17.2981 16.473 16.5007 17.1553 15.4777C17.8377 14.4546 18.2019 13.2519 18.2019 12.0215C18.1997 10.3722 17.5448 8.79109 16.3807 7.62489C15.2165 6.45868 13.6382 5.80255 11.9919 5.80041V5.80041ZM11.9919 15.8237C11.2412 15.8237 10.5075 15.6007 9.8833 15.1829C9.25914 14.7651 8.77265 14.1713 8.48539 13.4765C8.19812 12.7817 8.12296 12.0172 8.26941 11.2797C8.41585 10.5421 8.77736 9.86464 9.30815 9.33289C9.83895 8.80114 10.5152 8.43902 11.2515 8.29231C11.9877 8.14561 12.7508 8.2209 13.4444 8.50868C14.1379 8.79646 14.7307 9.28381 15.1477 9.90907C15.5648 10.5343 15.7873 11.2695 15.7873 12.0215C15.7873 12.5208 15.6892 13.0152 15.4984 13.4765C15.3077 13.9378 15.0281 14.3569 14.6757 14.71C14.3232 15.0631 13.9048 15.3432 13.4444 15.5342C12.9839 15.7253 12.4903 15.8237 11.9919 15.8237V15.8237Z" fill="white"/>
<path d="M18.218 7.33751C19.0386 7.33751 19.7039 6.67108 19.7039 5.84899C19.7039 5.0269 19.0386 4.36047 18.218 4.36047C17.3974 4.36047 16.7321 5.0269 16.7321 5.84899C16.7321 6.67108 17.3974 7.33751 18.218 7.33751Z" fill="white"/>
</svg>
