<svg width="506" height="80" viewBox="0 0 506 80" fill="none" xmlns="http://www.w3.org/2000/svg">
<path d="M6.10661 15.4859H4.13559C3.0022 15.3751 1.95149 14.8581 1.18731 14.0354C0.423141 13.2126 0 12.1427 0 11.0332C0 9.92374 0.423141 8.85383 1.18731 8.03107C1.95149 7.20831 3.0022 6.69137 4.13559 6.58057H6.10661C7.24 6.69137 8.29072 7.20831 9.05489 8.03107C9.81907 8.85383 10.2422 9.92374 10.2422 11.0332C10.2422 12.1427 9.81907 13.2126 9.05489 14.0354C8.29072 14.8581 7.24 15.3751 6.10661 15.4859V15.4859Z" fill="#E64283"/>
<path d="M54.7849 22.373H48.711C47.8139 22.3501 46.921 22.5025 46.0853 22.8211C45.2495 23.1398 44.4878 23.6182 43.8449 24.2282C43.202 24.8382 42.6911 25.5674 42.3422 26.3728C41.9934 27.1782 41.8136 28.0435 41.8136 28.9177C41.8136 29.7919 41.9934 30.6572 42.3422 31.4626C42.6911 32.268 43.202 32.9972 43.8449 33.6072C44.4878 34.2172 45.2495 34.6956 46.0853 35.0143C46.921 35.3329 47.8139 35.4853 48.711 35.4624H54.7849C59.0191 35.532 63.0556 37.2191 66.0246 40.1602C68.9937 43.1012 70.6575 47.0608 70.6575 51.1854C70.6575 55.3101 68.9937 59.2696 66.0246 62.2106C63.0556 65.1517 59.0191 66.8388 54.7849 66.9084C53.8877 66.8856 52.9949 67.0379 52.1592 67.3566C51.3234 67.6752 50.5617 68.1536 49.9188 68.7636C49.2759 69.3736 48.765 70.1028 48.4161 70.9082C48.0672 71.7137 47.8875 72.579 47.8875 73.4531C47.8875 74.3273 48.0672 75.1926 48.4161 75.998C48.765 76.8034 49.2759 77.5327 49.9188 78.1427C50.5617 78.7526 51.3234 79.2311 52.1592 79.5497C52.9949 79.8683 53.8877 80.0207 54.7849 79.9979C62.5666 79.9034 69.9966 76.8262 75.465 71.4331C80.9335 66.04 84 58.7653 84 51.1854C84 43.6055 80.9335 36.3308 75.465 30.9377C69.9966 25.5446 62.5666 22.4674 54.7849 22.373V22.373Z" fill="#E64283"/>
<path d="M53.5398 44.5377H47.3465C43.1123 44.4681 39.0758 42.781 36.1067 39.8399C33.1377 36.8989 31.4739 32.9393 31.4739 28.8147C31.4739 24.69 33.1377 20.7305 36.1067 17.7894C39.0758 14.8484 43.1123 13.1613 47.3465 13.0917C48.2437 13.1145 49.1365 12.9622 49.9722 12.6435C50.808 12.3249 51.5697 11.8465 52.2126 11.2365C52.8555 10.6265 53.3664 9.89727 53.7153 9.09186C54.0642 8.28644 54.2439 7.42112 54.2439 6.54696C54.2439 5.6728 54.0642 4.80748 53.7153 4.00206C53.3664 3.19664 52.8555 2.46744 52.2126 1.85744C51.5697 1.24745 50.808 0.769024 49.9722 0.450396C49.1365 0.131767 48.2437 -0.0206148 47.3465 0.00223766C40.4871 -0.00444596 33.8407 2.32227 28.5551 6.58053H19.4903C18.8899 6.58053 18.2955 6.69569 17.7408 6.91946C17.1862 7.14323 16.6822 7.47121 16.2577 7.88467C15.8332 8.29814 15.4965 8.789 15.2668 9.32922C15.037 9.86944 14.9188 10.4484 14.9188 11.0332C14.9188 11.6179 15.037 12.1969 15.2668 12.7371C15.4965 13.2773 15.8332 13.7682 16.2577 14.1817C16.6822 14.5951 17.1862 14.9231 17.7408 15.1469C18.2955 15.3707 18.8899 15.4858 19.4903 15.4858H18.9665C20.1789 15.4858 21.3417 15.9549 22.199 16.79C23.0563 17.625 23.538 18.7576 23.538 19.9385C23.538 21.1194 23.0563 22.2519 22.199 23.087C21.3417 23.922 20.1789 24.3911 18.9665 24.3911H11.0089C9.87087 24.4966 8.81411 25.0116 8.04504 25.8353C7.27596 26.6591 6.84979 27.7326 6.84979 28.846C6.84979 29.9594 7.27596 31.0329 8.04504 31.8567C8.81411 32.6804 9.87087 33.1954 11.0089 33.3009H16.9817C17.3759 33.301 17.7683 33.3521 18.1487 33.453C19.2183 33.7326 20.1473 34.3808 20.7632 35.2772C21.3791 36.1736 21.64 37.2573 21.4974 38.327C21.3548 39.3966 20.8184 40.3795 19.9878 41.093C19.1573 41.8064 18.0891 42.202 16.9817 42.2062H17.8225C17.1836 42.1437 16.5384 42.2124 15.9285 42.4077C15.3186 42.603 14.7574 42.9207 14.2813 43.3403C13.8052 43.7598 13.4246 44.2719 13.1642 44.8435C12.9037 45.4151 12.7691 46.0335 12.7691 46.6588C12.7691 47.2842 12.9037 47.9026 13.1642 48.4742C13.4246 49.0458 13.8052 49.5579 14.2813 49.9774C14.7574 50.3969 15.3186 50.7146 15.9285 50.91C16.5384 51.1053 17.1836 51.1739 17.8225 51.1115H28.6332C33.9061 55.3289 40.519 57.632 47.3419 57.6271H53.5352C55.2869 57.5825 56.9514 56.8734 58.1742 55.6509C59.3969 54.4284 60.0812 52.7891 60.0812 51.0824C60.0812 49.3757 59.3969 47.7364 58.1742 46.5139C56.9514 45.2914 55.2869 44.5823 53.5352 44.5377H53.5398Z" fill="#E64283"/>
<path d="M158.539 50.4844C158.539 53.5781 157.422 56.0156 155.188 57.7969C152.969 59.5781 149.875 60.4688 145.906 60.4688C142.25 60.4688 139.016 59.7812 136.203 58.4062V51.6562C138.516 52.6875 140.469 53.4141 142.062 53.8359C143.672 54.2578 145.141 54.4688 146.469 54.4688C148.062 54.4688 149.281 54.1641 150.125 53.5547C150.984 52.9453 151.414 52.0391 151.414 50.8359C151.414 50.1641 151.227 49.5703 150.852 49.0547C150.477 48.5234 149.922 48.0156 149.188 47.5312C148.469 47.0469 146.992 46.2734 144.758 45.2109C142.664 44.2266 141.094 43.2812 140.047 42.375C139 41.4688 138.164 40.4141 137.539 39.2109C136.914 38.0078 136.602 36.6016 136.602 34.9922C136.602 31.9609 137.625 29.5781 139.672 27.8438C141.734 26.1094 144.578 25.2422 148.203 25.2422C149.984 25.2422 151.68 25.4531 153.289 25.875C154.914 26.2969 156.609 26.8906 158.375 27.6562L156.031 33.3047C154.203 32.5547 152.688 32.0312 151.484 31.7344C150.297 31.4375 149.125 31.2891 147.969 31.2891C146.594 31.2891 145.539 31.6094 144.805 32.25C144.07 32.8906 143.703 33.7266 143.703 34.7578C143.703 35.3984 143.852 35.9609 144.148 36.4453C144.445 36.9141 144.914 37.375 145.555 37.8281C146.211 38.2656 147.75 39.0625 150.172 40.2188C153.375 41.75 155.57 43.2891 156.758 44.8359C157.945 46.3672 158.539 48.25 158.539 50.4844ZM175.227 54.7734C176.477 54.7734 177.977 54.5 179.727 53.9531V59.2734C177.945 60.0703 175.758 60.4688 173.164 60.4688C170.305 60.4688 168.219 59.75 166.906 58.3125C165.609 56.8594 164.961 54.6875 164.961 51.7969V39.1641H161.539V36.1406L165.477 33.75L167.539 28.2188H172.109V33.7969H179.445V39.1641H172.109V51.7969C172.109 52.8125 172.391 53.5625 172.953 54.0469C173.531 54.5312 174.289 54.7734 175.227 54.7734ZM184.742 27.0234C184.742 24.6953 186.039 23.5312 188.633 23.5312C191.227 23.5312 192.523 24.6953 192.523 27.0234C192.523 28.1328 192.195 29 191.539 29.625C190.898 30.2344 189.93 30.5391 188.633 30.5391C186.039 30.5391 184.742 29.3672 184.742 27.0234ZM192.195 60H185.047V33.7969H192.195V60ZM210.359 60.4688C202.203 60.4688 198.125 55.9922 198.125 47.0391C198.125 42.5859 199.234 39.1875 201.453 36.8438C203.672 34.4844 206.852 33.3047 210.992 33.3047C214.023 33.3047 216.742 33.8984 219.148 35.0859L217.039 40.6172C215.914 40.1641 214.867 39.7969 213.898 39.5156C212.93 39.2188 211.961 39.0703 210.992 39.0703C207.273 39.0703 205.414 41.7109 205.414 46.9922C205.414 52.1172 207.273 54.6797 210.992 54.6797C212.367 54.6797 213.641 54.5 214.812 54.1406C215.984 53.7656 217.156 53.1875 218.328 52.4062V58.5234C217.172 59.2578 216 59.7656 214.812 60.0469C213.641 60.3281 212.156 60.4688 210.359 60.4688ZM231.289 45.75L234.406 41.7656L241.742 33.7969H249.805L239.398 45.1641L250.438 60H242.188L234.641 49.3828L231.57 51.8438V60H224.422V23.5312H231.57V39.7969L231.195 45.75H231.289ZM265.039 38.3906C263.523 38.3906 262.336 38.875 261.477 39.8438C260.617 40.7969 260.125 42.1562 260 43.9219H270.031C270 42.1562 269.539 40.7969 268.648 39.8438C267.758 38.875 266.555 38.3906 265.039 38.3906ZM266.047 60.4688C261.828 60.4688 258.531 59.3047 256.156 56.9766C253.781 54.6484 252.594 51.3516 252.594 47.0859C252.594 42.6953 253.688 39.3047 255.875 36.9141C258.078 34.5078 261.117 33.3047 264.992 33.3047C268.695 33.3047 271.578 34.3594 273.641 36.4688C275.703 38.5781 276.734 41.4922 276.734 45.2109V48.6797H259.836C259.914 50.7109 260.516 52.2969 261.641 53.4375C262.766 54.5781 264.344 55.1484 266.375 55.1484C267.953 55.1484 269.445 54.9844 270.852 54.6562C272.258 54.3281 273.727 53.8047 275.258 53.0859V58.6172C274.008 59.2422 272.672 59.7031 271.25 60C269.828 60.3125 268.094 60.4688 266.047 60.4688ZM297.172 33.3047C298.141 33.3047 298.945 33.375 299.586 33.5156L299.047 40.2188C298.469 40.0625 297.766 39.9844 296.938 39.9844C294.656 39.9844 292.875 40.5703 291.594 41.7422C290.328 42.9141 289.695 44.5547 289.695 46.6641V60H282.547V33.7969H287.961L289.016 38.2031H289.367C290.18 36.7344 291.273 35.5547 292.648 34.6641C294.039 33.7578 295.547 33.3047 297.172 33.3047ZM328.531 60H321.383V44.6953C321.383 40.9141 319.977 39.0234 317.164 39.0234C315.164 39.0234 313.719 39.7031 312.828 41.0625C311.938 42.4219 311.492 44.625 311.492 47.6719V60H304.344V23.5312H311.492V30.9609C311.492 31.5391 311.438 32.8984 311.328 35.0391L311.164 37.1484H311.539C313.133 34.5859 315.664 33.3047 319.133 33.3047C322.211 33.3047 324.547 34.1328 326.141 35.7891C327.734 37.4453 328.531 39.8203 328.531 42.9141V60ZM341.586 46.8516C341.586 49.4453 342.008 51.4062 342.852 52.7344C343.711 54.0625 345.102 54.7266 347.023 54.7266C348.93 54.7266 350.297 54.0703 351.125 52.7578C351.969 51.4297 352.391 49.4609 352.391 46.8516C352.391 44.2578 351.969 42.3125 351.125 41.0156C350.281 39.7188 348.898 39.0703 346.977 39.0703C345.07 39.0703 343.695 39.7188 342.852 41.0156C342.008 42.2969 341.586 44.2422 341.586 46.8516ZM359.703 46.8516C359.703 51.1172 358.578 54.4531 356.328 56.8594C354.078 59.2656 350.945 60.4688 346.93 60.4688C344.414 60.4688 342.195 59.9219 340.273 58.8281C338.352 57.7188 336.875 56.1328 335.844 54.0703C334.812 52.0078 334.297 49.6016 334.297 46.8516C334.297 42.5703 335.414 39.2422 337.648 36.8672C339.883 34.4922 343.023 33.3047 347.07 33.3047C349.586 33.3047 351.805 33.8516 353.727 34.9453C355.648 36.0391 357.125 37.6094 358.156 39.6562C359.188 41.7031 359.703 44.1016 359.703 46.8516ZM384.172 60L383.211 56.6484H382.836C382.07 57.8672 380.984 58.8125 379.578 59.4844C378.172 60.1406 376.57 60.4688 374.773 60.4688C371.695 60.4688 369.375 59.6484 367.812 58.0078C366.25 56.3516 365.469 53.9766 365.469 50.8828V33.7969H372.617V49.1016C372.617 50.9922 372.953 52.4141 373.625 53.3672C374.297 54.3047 375.367 54.7734 376.836 54.7734C378.836 54.7734 380.281 54.1094 381.172 52.7812C382.062 51.4375 382.508 49.2188 382.508 46.125V33.7969H389.656V60H384.172ZM415.438 52.2188C415.438 54.9062 414.5 56.9531 412.625 58.3594C410.766 59.7656 407.977 60.4688 404.258 60.4688C402.352 60.4688 400.727 60.3359 399.383 60.0703C398.039 59.8203 396.781 59.4453 395.609 58.9453V53.0391C396.938 53.6641 398.43 54.1875 400.086 54.6094C401.758 55.0312 403.227 55.2422 404.492 55.2422C407.086 55.2422 408.383 54.4922 408.383 52.9922C408.383 52.4297 408.211 51.9766 407.867 51.6328C407.523 51.2734 406.93 50.875 406.086 50.4375C405.242 49.9844 404.117 49.4609 402.711 48.8672C400.695 48.0234 399.211 47.2422 398.258 46.5234C397.32 45.8047 396.633 44.9844 396.195 44.0625C395.773 43.125 395.562 41.9766 395.562 40.6172C395.562 38.2891 396.461 36.4922 398.258 35.2266C400.07 33.9453 402.633 33.3047 405.945 33.3047C409.102 33.3047 412.172 33.9922 415.156 35.3672L413 40.5234C411.688 39.9609 410.461 39.5 409.32 39.1406C408.18 38.7812 407.016 38.6016 405.828 38.6016C403.719 38.6016 402.664 39.1719 402.664 40.3125C402.664 40.9531 403 41.5078 403.672 41.9766C404.359 42.4453 405.852 43.1406 408.148 44.0625C410.195 44.8906 411.695 45.6641 412.648 46.3828C413.602 47.1016 414.305 47.9297 414.758 48.8672C415.211 49.8047 415.438 50.9219 415.438 52.2188ZM431.867 38.3906C430.352 38.3906 429.164 38.875 428.305 39.8438C427.445 40.7969 426.953 42.1562 426.828 43.9219H436.859C436.828 42.1562 436.367 40.7969 435.477 39.8438C434.586 38.875 433.383 38.3906 431.867 38.3906ZM432.875 60.4688C428.656 60.4688 425.359 59.3047 422.984 56.9766C420.609 54.6484 419.422 51.3516 419.422 47.0859C419.422 42.6953 420.516 39.3047 422.703 36.9141C424.906 34.5078 427.945 33.3047 431.82 33.3047C435.523 33.3047 438.406 34.3594 440.469 36.4688C442.531 38.5781 443.562 41.4922 443.562 45.2109V48.6797H426.664C426.742 50.7109 427.344 52.2969 428.469 53.4375C429.594 54.5781 431.172 55.1484 433.203 55.1484C434.781 55.1484 436.273 54.9844 437.68 54.6562C439.086 54.3281 440.555 53.8047 442.086 53.0859V58.6172C440.836 59.2422 439.5 59.7031 438.078 60C436.656 60.3125 434.922 60.4688 432.875 60.4688ZM448.367 56.6484C448.367 55.3359 448.719 54.3438 449.422 53.6719C450.125 53 451.148 52.6641 452.492 52.6641C453.789 52.6641 454.789 53.0078 455.492 53.6953C456.211 54.3828 456.57 55.3672 456.57 56.6484C456.57 57.8828 456.211 58.8594 455.492 59.5781C454.773 60.2812 453.773 60.6328 452.492 60.6328C451.18 60.6328 450.164 60.2891 449.445 59.6016C448.727 58.8984 448.367 57.9141 448.367 56.6484ZM462.758 27.0234C462.758 24.6953 464.055 23.5312 466.648 23.5312C469.242 23.5312 470.539 24.6953 470.539 27.0234C470.539 28.1328 470.211 29 469.555 29.625C468.914 30.2344 467.945 30.5391 466.648 30.5391C464.055 30.5391 462.758 29.3672 462.758 27.0234ZM470.211 60H463.062V33.7969H470.211V60ZM486.031 60.4688C482.953 60.4688 480.531 59.2734 478.766 56.8828C477.016 54.4922 476.141 51.1797 476.141 46.9453C476.141 42.6484 477.031 39.3047 478.812 36.9141C480.609 34.5078 483.078 33.3047 486.219 33.3047C489.516 33.3047 492.031 34.5859 493.766 37.1484H494C493.641 35.1953 493.461 33.4531 493.461 31.9219V23.5312H500.633V60H495.148L493.766 56.6016H493.461C491.836 59.1797 489.359 60.4688 486.031 60.4688ZM488.539 54.7734C490.367 54.7734 491.703 54.2422 492.547 53.1797C493.406 52.1172 493.875 50.3125 493.953 47.7656V46.9922C493.953 44.1797 493.516 42.1641 492.641 40.9453C491.781 39.7266 490.375 39.1172 488.422 39.1172C486.828 39.1172 485.586 39.7969 484.695 41.1562C483.82 42.5 483.383 44.4609 483.383 47.0391C483.383 49.6172 483.828 51.5547 484.719 52.8516C485.609 54.1328 486.883 54.7734 488.539 54.7734Z" fill="#E64283"/>
</svg>
